<?xml version="1.0" encoding="utf-8"?>
<!-- Generator: Adobe Illustrator 26.0.3, SVG Export Plug-In . SVG Version: 6.00 Build 0)  -->
<svg version="1.0" id="katman_1" xmlns="http://www.w3.org/2000/svg" xmlns:xlink="http://www.w3.org/1999/xlink" x="0px" y="0px"
	 viewBox="0 0 800 600" style="enable-background:new 0 0 800 600;" xml:space="preserve">
<style type="text/css">
	.st0{fill:#F9BE02;}
	.st1{opacity:0.32;fill-rule:evenodd;clip-rule:evenodd;fill:#F6BE00;enable-background:new    ;}
	.st2{fill-rule:evenodd;clip-rule:evenodd;fill:#F6BE00;}
	.st3{opacity:0.64;fill-rule:evenodd;clip-rule:evenodd;fill:#F6BE00;enable-background:new    ;}
	.st4{opacity:0.3894;fill-rule:evenodd;clip-rule:evenodd;fill:#F6BE00;enable-background:new    ;}
	.st5{opacity:0.6497;fill-rule:evenodd;clip-rule:evenodd;fill:#F6BE00;enable-background:new    ;}
	.st6{opacity:0.5765;fill-rule:evenodd;clip-rule:evenodd;fill:#F6BE00;enable-background:new    ;}
</style>
<g id="ill_x2F_preview">
	<g id="Rectangle" transform="translate(53.000000, 52.000000)">
		<g id="Group-3">
			<g id="Group-5">
				<g id="chip">
					<g id="Group">
						<path id="Shape" d="M331.6,201.4V110c6.8-1.7,12.2-6.9,14.1-13.7c1.9-6.8,0-14-5-19c-3.6-3.7-8.6-5.7-13.7-5.7
							c-5.2,0-10.1,2.1-13.7,5.7c-7.6,7.6-7.7,19.9-0.2,27.6c2.4,2.5,5.4,4.2,8.7,5.1v91.3H331.6z M320.2,84.4
							c3.8-3.8,9.9-3.8,13.6,0c3.8,3.8,3.8,9.9,0,13.7c-3.8,3.8-9.9,3.8-13.6,0c-1.8-1.8-2.8-4.3-2.8-6.8S318.4,86.2,320.2,84.4z"/>
						<path id="Shape_00000137133959575778762890000007592484390913807804_" d="M292.3,151.6c7.6-7.6,7.5-19.9-0.1-27.5
							c-7.6-7.6-19.9-7.6-27.4,0c-7.6,7.6-7.6,19.9-0.1,27.5c2.4,2.4,5.4,4.2,8.7,5.1v2.6c0,10.9,9.2,19.8,20.1,19.8
							c5.5,0,10.2,4.5,10.2,9.9v12.4h9.8V189c0-10.9-9.2-19.8-20.1-19.8c-5.5,0-10.2-4.5-10.2-9.9v-2.6
							C286.7,155.8,289.8,154.1,292.3,151.6z M271.9,131c3.8-3.8,9.9-3.8,13.6,0s3.8,9.9,0,13.7s-9.9,3.8-13.6,0
							c-1.8-1.8-2.8-4.3-2.8-6.8C269.1,135.3,270.1,132.8,271.9,131z"/>
						<path id="Shape_00000015342255344303907970000016326689442237057417_" d="M389.1,124c-7.6-7.6-19.9-7.5-27.5,0
							c-7.6,7.6-7.7,19.9-0.2,27.6c2.4,2.4,5.4,4.2,8.7,5.1v2.6c0,2.6-1,5.1-2.9,7c-1.8,1.9-4.4,2.9-7,2.9
							c-10.9,0-19.7,8.9-19.7,19.8v12.4h9.8V189c0-2.6,1-5.1,2.9-7c1.8-1.9,4.4-2.9,7-2.9c10.9,0,19.7-8.9,19.7-19.8v-2.6
							c6.8-1.7,12.2-6.9,14.1-13.6S394.1,129,389.1,124L389.1,124z M382.2,144.6c-3.8,3.8-9.9,3.8-13.6,0c-3.8-3.8-3.8-9.9,0-13.6
							c3.8-3.8,9.9-3.8,13.6,0C385.9,134.8,385.9,140.9,382.2,144.6z"/>
						<path id="Shape_00000167387247633405045770000015354158363946769083_" d="M495,259.8c-2.5,2.4-4.2,5.5-5.1,8.9h-91.1v9.8h91.1
							c2.2,8.6,9.9,14.5,18.7,14.6c8.8,0,16.6-5.9,18.9-14.4c2.3-8.5-1.4-17.6-9-22S501.2,253.6,495,259.8L495,259.8z M515.6,280.4
							c-3.8,3.8-9.9,3.8-13.6,0c-3.8-3.8-3.8-9.9,0-13.6c3.8-3.8,9.9-3.8,13.6,0C519.3,270.6,519.3,276.7,515.6,280.4L515.6,280.4z"
							/>
						<path id="Shape_00000062901485182319808010000009782095634222312882_" d="M421.1,240c0,2.6-1.1,5.1-2.9,7
							c-1.9,1.8-4.4,2.9-7,2.9h-12.4v9.8h12.4c10.9,0,19.7-8.8,19.7-19.7c0-2.6,1.1-5.1,2.9-7c1.9-1.8,4.4-2.9,7-2.9h2.6
							c2.5,9.5,11.6,15.6,21.3,14.4c9.7-1.3,17-9.5,17-19.3s-7.3-18.1-17-19.3c-9.7-1.2-18.8,4.9-21.3,14.4h-2.6
							C429.9,220.2,421.1,229.1,421.1,240z M455.4,218.4c3.8-3.8,9.9-3.8,13.6,0c3.8,3.8,3.8,9.9,0,13.7c-3.8,3.8-9.9,3.8-13.6,0
							c-1.8-1.8-2.8-4.3-2.8-6.8C452.6,222.6,453.6,220.2,455.4,218.4L455.4,218.4z"/>
						<path id="Shape_00000122698119916891010690000010427665591819369106_" d="M421.1,307.3c0,10.9,8.9,19.7,19.7,19.7h2.6
							c2.5,9.5,11.6,15.7,21.3,14.4c9.7-1.2,17-9.5,17-19.3c0-9.8-7.3-18.1-17-19.3c-9.7-1.3-18.8,4.9-21.3,14.4h-2.6
							c-2.6,0-5.1-1-7-2.9c-1.9-1.8-2.9-4.4-2.9-7c0-10.9-8.9-19.7-19.7-19.7h-12.4v9.8h12.4c2.6,0,5.1,1,7,2.9
							C420,302.1,421.1,304.6,421.1,307.3z M455.4,315.2c3.8-3.8,9.9-3.8,13.6,0c3.8,3.8,3.8,9.9,0,13.7c-3.8,3.8-9.9,3.8-13.6,0
							c-1.8-1.8-2.8-4.3-2.8-6.8C452.6,319.5,453.6,317,455.4,315.2L455.4,315.2z"/>
						<path id="Shape_00000147218407149427591860000008787408271212265626_" d="M327.1,475.5c7.9,0,15-4.8,18-12.1
							c3-7.3,1.3-15.7-4.4-21.2c-2.5-2.5-5.6-4.2-9-5.1v-91.3h-9.8v91.3c-3.3,0.9-6.3,2.6-8.7,5.1c-5.5,5.6-7.2,14-4.1,21.3
							C312,470.8,319.2,475.5,327.1,475.5L327.1,475.5z M320.2,449.2c3.8-3.8,9.9-3.8,13.6,0c3.8,3.8,3.8,9.9,0,13.7
							c-3.8,3.8-9.9,3.8-13.6,0c-1.8-1.8-2.8-4.3-2.8-6.8S318.4,451,320.2,449.2z"/>
						<path id="Shape_00000152226341074369868960000009281453882905790642_" d="M361.4,395.6c-6.4,6.3-7.7,16.1-3.3,23.8
							c4.5,7.8,13.6,11.5,22.2,9.2c8.6-2.4,14.6-10.2,14.5-19.2c-0.1-8.9-6.2-16.7-14.9-18.9v-2.6c0-10.9-8.8-19.8-19.7-19.8
							c-2.6,0-5.1-1.1-7-2.9c-1.8-1.9-2.9-4.4-2.9-7v-12.4h-9.8v12.4c0,10.9,8.8,19.8,19.7,19.8c2.6,0,5.1,1.1,7,2.9
							c1.8,1.9,2.9,4.4,2.9,7v2.6C366.8,391.4,363.8,393.2,361.4,395.6L361.4,395.6z M382.2,416.2c-3.8,3.8-9.9,3.8-13.6,0
							c-3.8-3.8-3.8-9.9,0-13.6c3.8-3.8,9.9-3.8,13.6,0C385.9,406.3,385.9,412.4,382.2,416.2L382.2,416.2z"/>
						<path id="Shape_00000042005057170392323470000012784078281217418112_" d="M293.5,378c10.9,0,20.1-8.9,20.1-19.8v-12.4h-9.8
							v12.4c0,5.5-4.8,9.9-10.2,9.9c-10.9,0-20.1,8.9-20.1,19.8v2.6c-3.3,0.9-6.3,2.6-8.7,5.1c-5.6,5.6-7.3,14-4.3,21.3
							c3,7.3,10.1,12.1,18,12.1c7.9,0,15-4.8,18-12.1c3-7.3,1.3-15.7-4.3-21.3c-2.5-2.5-5.6-4.2-9-5.1v-2.6
							C283.3,382.5,288.1,378,293.5,378z M285.5,416.2c-3.8,3.8-9.9,3.8-13.6,0c-3.8-3.8-3.8-9.9,0-13.6c3.8-3.8,9.9-3.8,13.6,0
							C289.3,406.3,289.3,412.4,285.5,416.2L285.5,416.2z"/>
						<path id="Shape_00000052820450202201841860000004368222524510623389_" d="M158.4,287.4c2.5-2.4,4.2-5.5,5.1-8.9h91.1v-9.8
							h-91.1c-2.2-8.6-9.9-14.5-18.7-14.6c-8.8,0-16.6,5.9-18.9,14.4c-2.3,8.5,1.4,17.5,9,22C142.5,294.9,152.2,293.6,158.4,287.4
							L158.4,287.4z M137.9,266.8c3.8-3.8,9.9-3.8,13.6,0c3.8,3.8,3.8,9.9,0,13.7c-3.8,3.8-9.9,3.8-13.6,0c-1.8-1.8-2.8-4.3-2.8-6.8
							C135,271,136,268.6,137.9,266.8z"/>
						<path id="Shape_00000051371934691367391090000007666127176866631076_" d="M222.5,307.3c0,2.6-1.1,5.1-2.9,7
							c-1.9,1.8-4.4,2.9-7,2.9H210c-2.5-9.5-11.6-15.6-21.3-14.4c-9.7,1.3-17,9.5-17,19.3s7.3,18.1,17,19.3
							c9.7,1.2,18.8-4.9,21.3-14.4h2.6c10.9,0,19.7-8.8,19.7-19.7c0-2.6,1.1-5.1,2.9-7c1.9-1.8,4.4-2.9,7-2.9h12.4v-9.8h-12.4
							C231.4,287.5,222.5,296.4,222.5,307.3L222.5,307.3z M198,328.9c-3.8,3.8-9.9,3.8-13.6,0c-3.8-3.8-3.8-9.9,0-13.6
							c3.8-3.8,9.9-3.8,13.6,0C201.8,319,201.8,325.1,198,328.9L198,328.9z"/>
						<path id="Shape_00000127754360427054159250000016067796483009215644_" d="M191.2,244.7c8.9,0,16.6-6,18.8-14.6h2.6
							c2.6,0,5.1,1,7,2.9c1.9,1.8,2.9,4.4,2.9,7c0,10.9,8.9,19.7,19.7,19.7h12.4v-9.8h-12.4c-2.6,0-5.1-1-7-2.9
							c-1.9-1.8-2.9-4.4-2.9-7c0-10.9-8.9-19.7-19.7-19.7H210c-2.5-9.8-12.2-16-22.1-14.3s-17,10.8-16.1,20.9
							C172.7,236.9,181.1,244.7,191.2,244.7z M184.4,218.4c3.8-3.8,9.9-3.8,13.6,0c3.8,3.8,3.8,9.9,0,13.7c-3.8,3.8-9.9,3.8-13.6,0
							c-1.8-1.8-2.8-4.3-2.8-6.8C181.6,222.6,182.6,220.2,184.4,218.4z"/>
					</g>
				</g>
				<path id="Shape_00000143606667601350944030000005174670507371358897_" class="st0" d="M402.2,224.2c0-12.8-10.3-23.1-23.1-23.1
					H276.3c-12.7,0-23.1,10.4-23.1,23.1v103.2c0,12.8,10.3,23.1,23.1,23.1h102.8c12.7,0,23.1-10.4,23.1-23.1V224.2z M392.3,327.3
					c0,7.3-5.9,13.2-13.2,13.2H276.3c-7.3,0-13.2-5.9-13.2-13.2V224.2c0-7.3,5.9-13.2,13.2-13.2h102.8c7.3,0,13.2,5.9,13.2,13.2
					V327.3z"/>
				<path id="Shape_00000020387795980683538300000002307022426102179209_" class="st0" d="M375,230.4c0-2.7-2.2-5-5-5h-87.5
					c-2.7,0-5,2.2-5,5v87.8c0,2.7,2.2,5,5,5h87.5c2.7,0,5-2.2,5-5V230.4z M287.5,235.4h77.6v77.8h-77.6V235.4z"/>
			</g>
		</g>
	</g>
	<g id="Group_00000094601219702466625150000006999549762041143433_" transform="translate(47.000000, 256.000000)">
		<rect id="Rectangle-Copy-70" x="120.9" y="244.7" class="st1" width="4.7" height="4.7"/>
		<rect id="Rectangle-Copy-53" x="217.2" y="243.1" class="st2" width="4.7" height="4.7"/>
		<rect id="Rectangle-Copy-69" x="125.7" y="206.8" class="st2" width="4.7" height="4.7"/>
		<rect id="Rectangle-Copy-67" x="165.1" y="189.5" class="st3" width="7.9" height="7.9"/>
		<rect id="Rectangle-Copy-68" x="155.6" y="224.2" class="st1" width="9.5" height="9.5"/>
		<rect id="Rectangle-Copy-71" x="182.5" y="210" class="st3" width="6.3" height="6.3"/>
		<rect id="Rectangle-Copy-66" x="163.5" y="192.6" class="st4" width="6.3" height="6.3"/>
		<rect id="Rectangle-Copy-54" x="204.5" y="197.4" class="st3" width="3.2" height="3.2"/>
		<rect id="Rectangle-Copy-72" x="124.1" y="247.9" class="st5" width="6.3" height="6.3"/>
		<rect id="Rectangle-Copy-55" x="191.9" y="227.3" class="st2" width="6.3" height="6.3"/>
		<rect id="Rectangle-Copy-23" x="228.2" y="213.2" class="st3" width="4.7" height="4.7"/>
	</g>
	<g id="Group-4" transform="translate(93.000000, 222.000000)">
		<rect id="Rectangle-Copy-27" x="147.5" y="195.1" class="st1" width="4.7" height="4.7"/>
		<rect id="Rectangle-Copy-31" x="190.1" y="207.7" class="st1" width="7.9" height="7.9"/>
		<rect id="Rectangle-Copy-32" x="191.7" y="169.9" class="st3" width="6.3" height="6.3"/>
	</g>
	<g id="Group-2" transform="translate(235.000000, 19.000000)">
		
			<rect id="Rectangle_00000079445231400908335050000001414476255410044814_" x="267.4" y="186.7" class="st6" width="14.2" height="14.2"/>
		<rect id="Rectangle-Copy-6" x="317.8" y="52.6" class="st6" width="18.9" height="18.9"/>
		<rect id="Rectangle-Copy-3" x="245.3" y="98.4" class="st2" width="23.7" height="23.7"/>
		<rect id="Rectangle-Copy-4" x="382.5" y="163.1" class="st2" width="14.2" height="14.2"/>
		<rect id="Rectangle-Copy-5" x="324.1" y="104.7" class="st2" width="9.5" height="9.5"/>
		
			<rect id="Rectangle-Copy-5_00000049189429556516531850000014664790617536541332_" x="229.5" y="227.7" class="st2" width="9.5" height="9.5"/>
	</g>
	<rect id="Rectangle-Copy-38" x="600.2" y="144.2" class="st3" width="6.3" height="6.3"/>
	<rect id="Rectangle-Copy-40" x="541.8" y="231" class="st1" width="6.3" height="6.3"/>
	<rect id="Rectangle-Copy-41" x="608" y="189.9" class="st3" width="17.6" height="17.6"/>
	<rect id="Rectangle-Copy-42" x="485" y="119" class="st3" width="12.9" height="12.9"/>
	<rect id="Rectangle-Copy-37" x="563.9" y="254.6" class="st2" width="8.8" height="8.8"/>
	<rect id="Rectangle-Copy-28" x="571.8" y="186.8" class="st3" width="11.3" height="11.3"/>
</g>
</svg>
